<?xml version="1.0" encoding="UTF-8" standalone="no"?>
<!-- Created with Inkscape (http://www.inkscape.org/) -->

<svg
   width="3280"
   height="880"
   viewBox="0 0 867.83332 232.83334"
   version="1.1"
   id="svg5"
   inkscape:version="1.2.2 (732a01da63, 2022-12-09)"
   sodipodi:docname="Logo1.svg"
   xmlns:inkscape="http://www.inkscape.org/namespaces/inkscape"
   xmlns:sodipodi="http://sodipodi.sourceforge.net/DTD/sodipodi-0.dtd"
   xmlns="http://www.w3.org/2000/svg"
   xmlns:svg="http://www.w3.org/2000/svg">
  <sodipodi:namedview
     id="namedview7"
     pagecolor="#ffffff"
     bordercolor="#000000"
     borderopacity="0.25"
     inkscape:showpageshadow="2"
     inkscape:pageopacity="0.0"
     inkscape:pagecheckerboard="true"
     inkscape:deskcolor="#d1d1d1"
     inkscape:document-units="mm"
     showgrid="false"
     inkscape:zoom="0.18473111"
     inkscape:cx="1266.706"
     inkscape:cy="476.36806"
     inkscape:window-width="1920"
     inkscape:window-height="1009"
     inkscape:window-x="1276"
     inkscape:window-y="-4"
     inkscape:window-maximized="1"
     inkscape:current-layer="text117" />
  <defs
     id="defs2">
    <rect
       x="55.502556"
       y="61.244198"
       width="3178.9565"
       height="1180.8647"
       id="rect119" />
  </defs>
  <g
     inkscape:label="Layer 1"
     inkscape:groupmode="layer"
     id="layer1">
    <g
       aria-label="だいちまる"
       transform="matrix(0.26458333,0,0,0.26458333,4.2967858,-3.5446674)"
       id="text117"
       style="font-size:620px;font-family:'GenEi M Gothic v2';-inkscape-font-specification:'GenEi M Gothic v2';text-align:center;text-anchor:middle;white-space:pre;shape-inside:url(#rect119);display:inline">
      <path
         d="m 127.07031,696.98633 q 67.8125,-161.66016 99.29688,-334.21875 l -94.45313,2.42187 V 259.23242 l 110.19531,-2.42187 q 3.02735,-28.45703 7.8711,-81.73828 l 118.67187,4.84375 q -2.42187,21.79687 -8.47656,73.86718 l 110.19531,-2.42187 v 105.95703 l -125.9375,3.02734 q -32.69531,192.53907 -99.90234,374.78516 z m 224.62891,-87.1875 q 0,-30.87891 14.53125,-68.41797 l 101.71875,15.13672 q -10.29297,20.58594 -10.29297,30.27344 0,30.8789 84.16016,30.8789 59.9414,0 127.14843,-12.71484 l 1.81641,112.01172 q -78.10547,8.47656 -119.27734,8.47656 -96.26954,0 -148.33985,-30.27344 -51.46484,-29.66797 -51.46484,-85.37109 z M 396.50391,370.0332 q 71.44531,-8.47656 135.01953,-8.47656 64.17968,0 130.78125,4.23828 l -4.23828,105.35156 q -69.02344,-4.84375 -130.17579,-4.84375 -61.15234,0 -130.78125,8.47657 z m 111.40625,-149.55078 53.28125,-13.32031 q 24.21875,35.72266 49.04296,94.45312 l -53.28125,17.5586 Q 528.49609,251.9668 507.91016,220.48242 Z m 79.92187,-20.58594 51.46484,-13.32031 q 28.45704,42.98828 50.25391,92.63672 L 636.875,295.56055 q -20.58594,-52.07032 -49.04297,-95.66407 z"
         style="fill:#f51f75"
         id="path1922" />
      <path
         d="m 757.96875,399.70117 q 0,-59.9414 7.26562,-178.00781 l 119.27735,2.42187 q -12.10938,121.09375 -12.10938,194.35547 0,72.65625 10.89844,118.67188 11.50391,45.41015 30.87891,45.41015 28.45703,0 53.28125,-116.85546 l 79.31636,115.64453 q -12.7148,59.33593 -50.25386,93.24218 -37.53907,33.90625 -90.82032,33.90625 -75.68359,0 -112.01171,-75.07812 -35.72266,-75.07813 -35.72266,-233.71094 z M 1067.3633,273.1582 1175.7422,230.16992 q 61.7578,67.8125 96.2695,173.16406 34.5117,105.35157 34.5117,224.62891 l -118.6718,24.82422 q 0,-118.67188 -32.6953,-220.39063 -32.0899,-101.71875 -87.793,-159.23828 z"
         style="fill:#f51f75"
         id="path1924" />
      <path
         d="M 1391.2891,360.95117 V 253.17773 h 149.5507 q 9.6875,-38.14453 16.3477,-80.52734 l 117.4609,10.29297 q -5.4492,29.66797 -13.9257,69.02344 122.3046,-0.60547 221.6015,-4.23828 v 107.16796 q -85.9765,3.02735 -251.875,4.84375 -10.8984,32.69532 -23.0078,58.73047 44.1992,-15.74218 104.7461,-15.74218 84.1602,0 133.2031,42.98828 49.043,42.38281 49.043,116.25 0,167.71484 -274.2773,167.71484 -33.3008,0 -93.8477,-3.63281 L 1488.1641,612.2207 q 66.6015,9.6875 143.4961,9.6875 77.5,0 116.25,-15.74218 39.3554,-16.34766 39.3554,-52.07032 0,-52.67578 -82.9492,-52.67578 -101.1133,0 -184.668,78.10547 l -93.8476,-55.70312 q 51.4648,-82.34375 81.7383,-162.8711 z"
         style="fill:#f51f75"
         id="path1926" />
      <path
         d="M 2016.1328,323.41211 V 218.66602 q 95.6641,6.66015 207.6758,7.87109 v -49.64844 h 110.8008 v 48.4375 q 94.4531,-1.8164 178.0078,-9.08203 v 106.5625 q -81.1328,6.05469 -178.6133,6.66016 v 32.08984 q 96.2695,-1.21094 164.082,-5.44922 v 104.14063 q -62.9687,4.23828 -164.6875,6.05468 v 52.07032 q 38.75,15.74218 64.1797,32.69531 26.0352,16.34766 33.3008,21.19141 7.2656,4.23828 22.4024,15.74218 15.1367,10.89844 19.375,13.92578 4.2382,3.02735 20.5859,15.74219 16.3476,12.71485 18.1641,13.92578 l -69.0235,92.03125 q -64.1797,-58.73047 -116.25,-92.03125 -15.1367,45.41016 -58.7305,72.65625 -42.9882,27.85157 -104.1406,27.85157 -61.1523,0 -101.7187,-33.90625 -39.961,-33.30079 -39.961,-89.60938 0,-56.30859 43.5938,-87.79297 43.5937,-31.48437 122.9101,-31.48437 18.7696,0 35.7227,1.8164 V 466.9082 q -77.5,-0.60547 -191.9336,-4.84375 V 356.71289 q 96.2695,3.02734 191.9336,4.23828 v -32.08984 q -98.6914,-0.60547 -207.6758,-5.44922 z m 163.4766,258.53516 q -50.8594,0 -50.8594,25.42968 0,24.82422 42.3828,24.82422 23.6133,0 35.1172,-10.29297 12.1094,-10.89843 15.7422,-35.72265 -20.5859,-4.23828 -42.3828,-4.23828 z"
         style="fill:#f51f75"
         id="path1928" />
      <path
         d="m 2611.3086,479.62305 259.1406,-182.2461 -177.4023,4.84375 V 196.26367 l 377.8125,-4.23828 v 90.82031 l -129.5703,87.79297 q 10.8984,-3.63281 28.457,-3.63281 80.5273,0 130.1758,47.22656 50.2539,46.6211 50.2539,122.30469 0,87.79297 -67.207,140.46875 -66.6016,52.67578 -178.0079,52.67578 -82.9492,0 -131.3867,-30.87891 -48.4375,-30.8789 -48.4375,-81.13281 0,-50.85937 35.1172,-81.73828 35.7227,-31.48437 86.582,-31.48437 51.4649,0 89.0039,27.85156 38.1446,27.85156 58.125,77.5 46.0157,-25.42969 46.0157,-73.86719 0,-77.5 -119.2774,-77.5 -38.75,0 -72.6562,9.6875 -33.9063,9.08203 -51.4649,18.76953 -52.0703,27.2461 -133.8086,92.03125 z m 216.7578,128.35937 q 0,23.00781 65.3906,23.00781 -10.8984,-35.72265 -43.5937,-35.72265 -21.7969,0 -21.7969,12.71484 z"
         style="fill:#f51f75"
         id="path1930" />
    </g>
  </g>
</svg>
